HIERARCHY
ROOT Hips
{
  OFFSET 74.0196 97.4445 -31.1285
  CHANNELS 6 Xposition Yposition Zposition Zrotation Xrotation Yrotation
  JOINT RightUpLeg
  {
    OFFSET -8.9458 -8.66707 0.101652
    CHANNELS 3 Zrotation Xrotation Yrotation
    JOINT RightLeg
    {
      OFFSET -2.94875e-013 -44.4227 1.3727
      CHANNELS 3 Zrotation Xrotation Yrotation
      JOINT RightFoot
      {
        OFFSET 0.253549 -42.0924 -1.46059
        CHANNELS 3 Zrotation Xrotation Yrotation
        JOINT RightToes
        {
          OFFSET 0.04 -4.41509 8.4991
          CHANNELS 3 Zrotation Xrotation Yrotation
          End Site
          {
            OFFSET -0.08 -0.137448 9.77979
          }
        }
      }
    }
  }
  JOINT Spine
  {
    OFFSET -5.68434e-014 11.8905 -6.39488e-014
    CHANNELS 3 Zrotation Xrotation Yrotation
    JOINT Spine1
    {
      OFFSET 5.68434e-014 25.6574 0.127663
      CHANNELS 3 Zrotation Xrotation Yrotation
      JOINT HEad
      {
        OFFSET 4.26326e-014 8.73416 0.011341
        CHANNELS 3 Zrotation Xrotation Yrotation
        End Site
        {
          OFFSET -0.29 12.7742 2.51395
        }
      }
      JOINT LeftShoulder1
      {
        OFFSET 8.99 -0.362252 -0.22
        CHANNELS 3 Zrotation Xrotation Yrotation
        JOINT LeftArm
        {
          OFFSET 10.2827 -0.00338 0.322123
          CHANNELS 3 Zrotation Xrotation Yrotation
          JOINT LeftForeArm
          {
            OFFSET 32.7669 0.099144 -1.42434
            CHANNELS 3 Zrotation Xrotation Yrotation
            JOINT LeftHand
            {
              OFFSET 27.5643 0.085362 1.02216
              CHANNELS 3 Zrotation Xrotation Yrotation
              End Site
              {
                OFFSET 16.7443 -0.6 1.50291
              }
            }
          }
        }
      }
      JOINT RightShoulder
      {
        OFFSET -8.99 -0.362252 -0.22
        CHANNELS 3 Zrotation Xrotation Yrotation
        JOINT RightArm
        {
          OFFSET -10.2827 -0.00338 0.322123
          CHANNELS 3 Zrotation Xrotation Yrotation
          JOINT RightForeArm
          {
            OFFSET -32.8971 0.099144 -1.42434
            CHANNELS 3 Zrotation Xrotation Yrotation
            JOINT RightHand
            {
              OFFSET -27.4921 0.085362 1.02216
              CHANNELS 3 Zrotation Xrotation Yrotation
              End Site
              {
                OFFSET -16.6312 -0.6 1.50291
              }
            }
          }
        }
      }
    }
  }
  JOINT LeftUpLeg
  {
    OFFSET 8.9458 -8.66707 0.101652
    CHANNELS 3 Zrotation Xrotation Yrotation
    JOINT LeftLeg
    {
      OFFSET 7.10543e-014 -44.4227 1.3727
      CHANNELS 3 Zrotation Xrotation Yrotation
      JOINT LeftFoot
      {
        OFFSET -0.253549 -42.0924 -1.46059
        CHANNELS 3 Zrotation Xrotation Yrotation
        JOINT LeftToes
        {
          OFFSET -0.04 -4.41509 8.4991
          CHANNELS 3 Zrotation Xrotation Yrotation
          End Site
          {
            OFFSET 0.08 -0.047448 9.77979
          }
        }
      }
    }
  }
}
MOTION
Frames:	7
Frame Time:	0.0166667
108.624 97.092 13.4575 2.76554 -3.67984 -153.224 -10.4675 -13.1455 -6.1059 2.08129 42.2883 -0.260726 4.26285 4.8325 -0.554085 -31.7146 -41.4851 -15.573 -2.92306 5.76086 4.63426 -4.72788 10.8258 9.95463 -7.189 -9.04551 13.4271 -5.03302e-021 -3.88251e-019 1.21329e-020 -48.2233 -51.5943 -12.2267 -11.3646 39.963 -108.273 21.6684 4.69636 -23.4857 10.495 2.95088 18.682 74.1767 -27.3485 45.5968 -14.6387 45.0356 143.211 -18.4059 15.7656 -41.6184 24.6883 -34.5437 9.77118 -0.967565 45.3023 -11.0422 -20.9227 10.3016 3.2213 9.11734 -12.8166 -2.89678 
107.616 97.1288 13.647 2.66415 -3.88425 -154.321 -12.1323 -16.3792 -7.47619 2.54168 45.9659 -0.739863 5.80601 9.60698 -0.931168 -33.1594 -43.2685 -15.2117 -2.74118 5.66538 4.2932 -4.35964 10.6954 9.17203 -7.6467 -8.51641 15.4684 -5.03302e-021 -3.88251e-019 1.21329e-020 -42.9635 -56.9329 -10.2851 -12.9009 41.4601 -102.861 22.0763 4.68499 -23.0201 10.3423 2.97621 19.0664 73.1385 -26.5066 45.686 -13.9537 45.1251 142.191 -18.0781 15.663 -41.6592 23.3988 -32.2325 7.64535 0.268922 41.2956 -9.4526 -18.527 6.82244 2.29621 6.34808 -8.45602 -0.306495 
106.493 96.9159 13.7656 2.52782 -3.84536 -154.755 -13.9497 -18.9216 -8.58269 3.98856 49.2381 -2.32208 6.97901 13.2145 -1.30241 -33.3914 -43.8694 -14.5513 -2.40479 5.55953 3.82864 -3.75316 10.5866 8.12581 -8.09845 -7.68706 17.1561 -5.03302e-021 -3.88251e-019 1.21329e-020 -39.4859 -61.4398 -10.3676 -15.9937 42.8519 -94.5599 22.3056 4.7692 -22.315 10.1686 2.99312 19.426 72.1268 -25.6401 46.2791 -13.5628 44.9767 141.097 -17.4653 15.5192 -42.0418 21.6389 -29.7404 5.8937 2.29834 37.2625 -9.33035 -17.1368 3.19235 1.59707 3.69629 -4.6687 1.82784 
105.291 96.4996 13.8525 2.3096 -3.63953 -154.506 -15.8622 -20.4677 -9.19954 6.49661 51.5366 -5.07183 7.49633 15.4918 -1.52998 -33.4593 -43.9484 -14.545 -1.98299 5.45348 3.30709 -3.02677 10.4808 6.98071 -8.4912 -6.71019 18.3219 -5.03302e-021 -3.88251e-019 1.21329e-020 -39.3866 -64.6459 -13.5259 -20.5774 43.4353 -84.1156 22.0903 4.90742 -21.8846 9.87497 2.9682 19.6558 71.5053 -24.8193 47.7454 -13.5555 44.9149 139.73 -16.7502 15.373 -42.6644 19.7912 -27.5473 4.95542 4.43845 33.8513 -10.7299 -16.7109 0.109751 1.12496 1.95225 -2.32855 3.22647 
104.059 95.9777 13.9622 1.93133 -3.40662 -153.722 -17.7261 -20.9336 -9.18915 9.43432 52.4599 -8.42885 7.42884 16.5954 -1.58051 -34.2414 -44.2111 -15.6867 -1.62176 5.35717 2.82328 -2.34599 10.3584 5.94538 -8.77273 -5.79508 18.8801 -5.03302e-021 -3.88251e-019 1.21329e-020 -43.0933 -66.2007 -19.6198 -25.769 42.5164 -73.3835 21.2984 5.01659 -22.3086 9.34998 2.86924 19.6714 71.6138 -24.0987 50.3445 -13.9464 45.3095 137.869 -16.1294 15.2625 -43.3605 18.0928 -26.1652 4.9693 6.20987 31.7647 -13.5651 -17.0455 -2.00326 0.845543 1.50912 -1.74332 3.71911 
102.831 95.4417 14.1262 1.33539 -3.30488 -152.687 -19.3556 -20.4724 -8.54388 11.6735 52.0226 -11.3432 7.04899 16.6017 -1.50056 -35.7665 -44.7463 -17.776 -1.45833 5.27752 2.48164 -1.86268 10.2135 5.23592 -8.92512 -5.16666 18.8377 -5.03302e-021 -3.88251e-019 1.21329e-020 -45.6135 -59.7346 -24.5083 -27.276 33.9578 -68.1734 19.891 5.27591 -22.7751 8.49867 2.67649 19.4336 72.6502 -23.5 54.1209 -14.6163 46.487 135.312 -15.795 15.2223 -43.8908 16.6501 -25.9796 5.81825 7.51065 31.5667 -17.5421 -18.0272 -2.96805 0.748292 2.32916 -2.7942 3.28419 
101.599 94.934 14.3409 0.530183 -3.44708 -151.757 -20.618 -19.4055 -7.40844 12.3254 50.6569 -12.9236 6.65411 15.3973 -1.35523 -37.2387 -45.078 -20.0321 -1.53292 5.22005 2.37113 -1.65861 10.0621 5.03028 -8.98913 -5.00554 18.3016 -5.03302e-021 -3.88251e-019 1.21329e-020 -48.3116 -55.339 -27.6944 -29.5059 28.1226 -64.9395 17.6401 5.51127 -24.7995 7.2804 2.39246 18.9567 74.5415 -22.9513 58.8046 -15.2542 48.5442 131.917 -15.8748 15.2679 -44.0102 15.5419 -27.0677 7.19786 8.48361 33.3635 -22.0375 -19.6443 -2.69039 0.862725 4.10093 -5.16688 1.98542 
